<?xml version="1.0" encoding="UTF-8"?>
<svg id="Camada_2" data-name="Camada 2" xmlns="http://www.w3.org/2000/svg" viewBox="0 0 439.81 452.26">
  <defs>
    <style>
      .cls-1 {
        fill: #01ba74;
        stroke-width: 0px;
      }
    </style>
  </defs>
  <g id="Camada_1-2" data-name="Camada 1">
    <path class="cls-1" d="M439.8,214.7v-.06c-.52-11.22-1.09-22.45-3.05-33.51-3.29-18.62-8.83-36.64-16.92-53.74-24.59-51.98-63.42-89.22-116.46-111.49-16.14-6.78-32.94-11.4-50.26-13.81C237.28-.11,221.3-.31,205.37.29c-25.65.97-50.05,7.53-73.32,18.13-48.7,22.18-85.27,57.14-109.18,105.1-11.32,22.7-18.5,46.73-21.45,71.93C.02,207.36.34,219.39.29,231.36.07,285.51.06,339.66,0,393.81c-.02,13.3-.07,26.6.64,39.89.21,3.79.65,7.46,3.14,10.65,5.87,7.48,15.56,10.02,24.28,6.02,3.15-1.45,6.19-3.2,9.16-5.01,20.53-12.49,40.61-25.66,60.85-38.61,1.79-1.14,2.94-1.07,4.74,0,33.17,19.69,68.4,32.55,107.56,32.72,22.49.09,44.79-.36,66.71-6.58,40.25-11.42,74.7-32.14,103.39-62.53,19.6-20.75,34.7-44.38,44.81-71.03,8.48-22.32,13.62-45.45,14.5-69.42v-.04c.01-4.14.01-8.27.02-12.4v-.04c0-.92,0-1.82,0-2.73ZM336.82,305.83c1.76,6.84,3.23,13.75,4.82,20.62,2.71,11.66-5.28,19.93-14.76,22.33-4.05,1.02-7.65-.45-11.35-1.24-5.9-1.24-11.74-2.76-17.52-4.46-2.4-.7-4.3-.38-6.43.74-9.67,5.06-19.52,9.73-30.04,12.86-25.32,7.54-50.73,8.61-76.42,1.76-38.31-10.22-67.65-32.53-88.07-66.18-15.8-26.02-22.45-54.67-19.47-85.07,3.67-37.41,19.72-68.87,47.72-94,19.41-17.42,42.07-28.89,67.69-33.76,38.4-7.29,74.01.44,106.48,22.03,27.08,18,45.16,42.94,55.99,73.54,5.95,16.8,7.33,33.97,6.75,51.51-.16,1.1-.24,2.19-.28,3.29-.45,5.14-.89,10.29-1.34,15.44-3.03,14.93-7.65,29.31-15.21,42.63-2.65,4.67-5.27,9.36-7.94,14.01-.74,1.27-1.02,2.39-.62,3.95Z"/>
  </g>
</svg>